<svg width="132" height="150" viewBox="0 0 132 150" fill="none" xmlns="http://www.w3.org/2000/svg">
<path d="M11.9314 134.615L0 0H131.046L119.1 134.625L65.4911 149.573L11.9314 134.615Z" fill="#E34E26"/>
<path d="M65.5234 11.0032V138.139L108.873 126.052L119.086 11.0032H65.5234Z" fill="#EF662A"/>
<path d="M24.4111 27.5151L28.8356 77.443H85.7286L83.8193 98.8579L65.5011 103.839L47.2175 98.8651L45.9951 85.1147H29.5186L31.8747 111.621L65.4972 121.014L99.1622 111.621L103.675 60.9346H43.8485L42.3464 44.027H105.113H105.163L106.633 27.5151H24.4111Z" fill="white"/>
<path d="M65.5233 27.5151H24.4121L28.8366 77.443H65.5233V60.9346H43.8495L42.3473 44.027H65.5233V27.5151Z" fill="#EBEBEB"/>
<path d="M65.5232 103.832L65.502 103.839L47.2185 98.8649L45.9961 85.1145H29.5195L31.8756 111.621L65.4981 121.014L65.5232 121.007V103.832Z" fill="#EBEBEB"/>
</svg>
