<svg width="132" height="178" viewBox="0 0 132 178" fill="none" xmlns="http://www.w3.org/2000/svg">
<path d="M83.1293 0H83.2859C88.126 5.60881 89.0228 13.8085 86.6882 20.6985C83.5991 30.1367 76.5525 37.5819 69.2069 43.9594C63.4273 48.7425 57.2206 53.4688 53.619 60.2164C51.0993 64.7433 50.6722 70.3948 52.5656 75.2207C55.612 83.4061 62.1176 89.6413 65.8473 97.4708C58.1459 90.8513 50.5584 83.7478 45.22 75.0071C41.7608 69.5265 40.7074 62.0386 44.6364 56.5152C54.0745 42.9487 70.6732 36.443 79.7555 22.5634C84.1827 15.9723 85.0653 7.58755 83.1293 0Z" fill="#EA2D31"/>
<path d="M76.0394 49.853C84.5096 43.3758 94.5457 39.219 104.767 36.3577C96.0546 42.4362 86.1751 47.3048 79.2282 55.6326C76.8081 58.6078 74.986 62.608 76.1818 66.4659C77.705 71.8469 81.9757 75.7901 84.5523 80.6302C86.4314 84.3172 86.1182 88.8584 83.9544 92.3603C81.0646 97.1435 76.5519 100.802 71.7118 103.507C73.9468 100.731 76.438 97.8268 76.7797 94.1113C77.406 90.3816 75.3704 86.9508 73.0073 84.2603C68.8078 79.3206 65.377 73.0996 65.7471 66.4232C66.2311 59.6043 70.8007 53.8674 76.0394 49.853Z" fill="#EA2D31"/>
<path d="M106.489 99.3069C108.909 96.2462 113.208 96.0469 116.796 95.99C123.145 95.99 129.693 100.403 130.633 106.966C131.487 112.745 127.715 118.041 123.401 121.486C117.237 126.312 109.749 129.287 102.147 130.981C107.23 127.266 113.208 124.675 117.565 119.963C120.711 116.774 123.515 112.603 123.273 107.934C123.031 103.094 118.789 99.2215 114.191 98.41C111.586 97.7837 109.023 98.9225 106.489 99.3069Z" fill="#0B74BC"/>
<path d="M24.4359 101.357C31.0839 99.0935 38.1162 97.2998 45.1771 97.9119C39.5825 99.4778 33.7744 100.688 28.6923 103.592C27.6673 104.047 27.283 105.115 26.799 106.026C32.4362 108.93 38.9988 108.347 45.1344 108.859C64.4662 109.03 83.8551 107.592 102.888 104.119C100.027 105.998 97.0087 107.72 93.8057 108.973C81.5204 111.934 68.865 112.859 56.2808 113.315C45.0774 113.5 33.7886 113.343 22.7276 111.421C19.5388 110.653 15.5671 110.24 13.7734 107.108C16.5636 104.033 20.6777 102.823 24.4359 101.357Z" fill="#0B74BC"/>
<path d="M29.2766 122.269C31.6255 119.991 34.8142 118.938 37.7895 117.756C36.8357 119.038 35.9389 120.347 35.0847 121.685C36.3232 123.08 37.9176 124.134 39.8109 124.333C56.1961 126.682 72.9086 125.643 89.1087 122.397C91.2582 124.177 93.7495 125.429 96.1126 126.896C86.9591 129.999 77.1935 131.223 67.5703 132.02C57.0075 132.689 46.2312 132.49 35.9389 129.8C33.348 128.96 30.4866 128.077 28.7214 125.885C27.7819 124.789 28.3228 123.123 29.2766 122.269Z" fill="#0B74BC"/>
<path d="M33.9165 141.658C35.7244 139.11 38.9417 138.298 41.7318 137.302C41.134 138.17 40.5361 139.025 39.9524 139.893C43.0985 142.996 47.9101 142.384 51.9387 143.01C62.6012 144.292 73.3205 142.911 83.7979 140.989C86.6877 143.053 90.389 143.95 93.1649 146C79.4276 151.68 64.0674 153.303 49.4048 151.068C44.522 150.199 39.4684 149.103 35.3828 146.128C34.0731 145.174 32.7634 143.238 33.9165 141.658Z" fill="#0B74BC"/>
<path d="M4.17859 155.808C9.8301 152.634 16.2076 150.712 22.6706 150.157C24.45 150.128 26.6138 149.787 27.9804 151.196C21.9873 151.836 15.567 153.046 10.9262 157.189C12.9477 160.193 16.9479 160.335 20.1082 161.317C36.5502 164.463 53.4336 164.449 70.1034 164.093C84.339 163.339 98.7169 162.741 112.611 159.324C115.6 158.442 119.131 157.559 120.711 154.555C120.469 153.431 119.999 152.392 119.572 151.338C120.953 152.463 122.917 153.36 123.131 155.367C122.319 157.701 120.042 158.997 117.963 160.05C112.981 162.499 107.543 163.851 102.133 165.004C86.5313 168.236 70.5448 169.204 54.6436 169.104C38.7283 168.933 22.7987 167.624 7.12535 164.862C4.57718 164.293 1.58772 163.723 0.0787471 161.346C-0.504911 158.741 2.28526 157.047 4.17859 155.808Z" fill="#0B74BC"/>
<path d="M105.436 170.741C114.333 168.762 123.97 167.026 131.046 160.819C129.608 166.812 123.472 169.616 118.205 171.496C106.603 175.382 94.3036 176.393 82.1607 177.218C67.498 177.816 52.7642 177.816 38.1586 176.065C33.2046 175.239 27.9374 174.855 23.5244 172.193C50.6716 176.065 78.4594 175.638 105.436 170.741Z" fill="#0B74BC"/>
</svg>
