<svg width="132" height="150" viewBox="0 0 132 150" fill="none" xmlns="http://www.w3.org/2000/svg">
<path d="M131.046 0H65.5311H0L12.283 134.349L65.5311 149.576L118.747 134.349L131.046 0Z" fill="#E6A329"/>
<path d="M65.5303 10.9438V138.188L108.643 125.866L119.136 10.9438H65.5303Z" fill="#F1BF22"/>
<path d="M99.826 27.4177H33.5139L28.8936 77.7247L28.9912 77.413H85.3304L83.492 98.6942L65.5311 103.928L47.2774 98.6121L46.1874 85.7318H29.6257L31.9846 111.476L65.5311 121.075L99.0613 111.476L103.682 60.9721H43.8935L44.6581 44.1211H86.1438L86.762 53.769H103.47L99.826 27.4177Z" fill="white"/>
<path d="M65.5314 27.4177H33.5143L28.9102 77.7247L29.0078 77.413H65.5314V60.9721H46.204L46.9686 44.1375H65.5314V27.4177ZM46.1877 85.7318H29.626L31.985 111.46L65.5152 121.042V103.928L47.2777 98.6121L46.1877 85.7318Z" fill="#EBEBEB"/>
</svg>
