<svg width="170" height="150" viewBox="0 0 170 150" fill="none" xmlns="http://www.w3.org/2000/svg">
<path d="M116.698 146.207C113.676 146.207 110.393 145.592 106.933 144.389C99.6706 141.782 92.7364 137.437 85.2824 130.793C77.4728 137.584 70.2787 141.969 62.8521 144.469C59.4192 145.578 56.2188 146.14 53.2919 146.14C50.1736 146.14 47.3151 145.512 44.7985 144.255C39.7927 141.742 36.1957 136.542 34.6502 129.59C32.5986 120.085 33.8706 110.648 35.5665 102.988C26.5944 100.127 19.3456 96.4641 13.4782 91.8387C7.4056 86.8257 4.17783 81.8126 3.54869 76.4788C2.56395 68.9258 7.54237 63.0037 10.5923 60.143C17.9506 53.2584 27.4971 49.395 35.6486 46.8417C34.021 39.3155 32.7217 30.1049 34.445 20.9611C35.7854 14.0097 38.9311 8.8229 43.5539 5.94876C46.3303 4.29112 49.5171 3.47566 53.0868 3.47566C55.9042 3.47566 58.9132 3.98365 62.0315 4.98626C69.6769 7.51283 77.0352 11.9778 85.0362 18.9693C90.3702 14.237 97.8242 8.50206 106.728 5.22688C110.27 3.97028 113.621 3.32861 116.712 3.32861C119.899 3.32861 122.785 3.99702 125.329 5.33383C131.757 8.88974 134.314 15.6941 135.354 20.7873C136.817 28.5141 136.503 37.083 134.383 46.9353C141.303 49.1143 150.207 52.6034 157.579 58.6324C163.269 63.3781 166.36 68.752 166.578 74.2062C166.661 79.901 163.706 85.4889 158.017 90.4083C152.149 95.4347 144.709 99.3516 134.752 102.6C136.475 111.089 137.597 120.741 135.162 130.272C133.384 137.023 129.924 141.862 125.11 144.295C122.621 145.565 119.789 146.207 116.698 146.207ZM113.334 132.518C114.702 132.825 115.782 132.959 116.726 132.959C118.613 132.959 119.283 132.344 119.502 132.143C121.239 130.446 121.991 127.612 122.443 125.339C123.455 119.778 123.209 113.669 121.636 105.902C115.741 107.025 110.229 107.814 104.895 108.322C101.914 112.385 98.4807 116.904 94.6238 121.222C99.9578 125.887 106.208 130.459 113.334 132.518ZM51.5413 132.705C52.1294 132.825 52.7585 132.879 53.415 132.879C55.3845 132.879 57.6412 132.344 60.5134 131.208C65.5738 129.122 70.5249 125.927 75.8726 121.262C72.3987 117.452 68.9384 113.228 65.3824 108.415C59.3371 107.867 53.839 107.118 48.6828 106.156C47.3424 112.385 46.3577 119.831 47.8621 126.943C48.4092 129.216 49.4897 132.103 51.5413 132.705ZM82.93 109.231C83.6822 110.126 84.4344 110.995 85.214 111.851C85.9799 110.968 86.7185 110.1 87.4297 109.231C86.6501 109.244 85.8705 109.244 85.0772 109.244C84.366 109.231 83.6548 109.231 82.93 109.231ZM72.6722 95.809C76.5565 95.9694 81.0699 96.1165 85.5833 96.1165C89.9189 96.1165 93.8305 95.9828 97.4686 95.6887C101.832 89.0849 105.948 82.08 109.737 74.8078C106.208 67.8029 102.05 60.7579 97.3318 53.8332C93.0783 53.5659 88.8931 53.4322 84.8311 53.4322C80.7006 53.4322 76.5975 53.5659 72.6175 53.8466C68.0084 60.5708 63.8642 67.6157 60.2672 74.8345C64.1104 82.2805 67.94 88.8175 71.961 94.7396C72.1798 95.0337 72.3987 95.3679 72.6038 95.7021C72.6312 95.7288 72.6585 95.7689 72.6722 95.809ZM52.3072 93.4696C53.456 93.6701 54.6049 93.8707 55.7401 94.0444C54.9742 92.7745 54.2219 91.4911 53.4834 90.2078C53.0731 91.2906 52.6764 92.3868 52.3072 93.4696ZM116.698 89.887C115.919 91.2238 115.139 92.5606 114.346 93.8707C115.55 93.6701 116.739 93.4562 117.943 93.229C117.533 92.1194 117.122 90.9965 116.698 89.887ZM16.9521 74.9816C17.4582 77.3878 19.455 79.4599 22.2862 81.7993C26.6902 85.2081 32.2977 88.0021 39.2867 90.2613C41.051 85.0878 43.1299 79.9144 45.4823 74.8078C43.0478 69.4605 41.0373 64.4475 39.3824 59.5815C31.4908 62.0011 25.5139 65.009 20.768 68.9124C18.0737 71.2786 16.8291 73.2303 16.9521 74.9816ZM124.604 74.7008C126.915 79.4465 129.008 84.4595 130.95 89.9271C137.269 87.7882 144.011 84.9007 149.359 80.2619C152.026 77.829 153.161 75.9574 152.997 74.273C152.546 72.0406 150.44 70.0621 148.429 68.4045C143.875 64.8886 138.171 62.0814 130.676 59.6885C128.803 65.1293 126.628 70.2225 124.604 74.7008ZM114.414 55.785C115.044 56.8411 115.645 57.8971 116.247 58.9265C116.343 59.0869 116.439 59.2473 116.534 59.4211C116.917 58.4051 117.287 57.4025 117.656 56.3865C116.575 56.1727 115.495 55.9721 114.414 55.785ZM52.4029 56.3464C52.7585 57.349 53.1141 58.3517 53.4834 59.3409C54.1672 58.1511 54.8648 56.9614 55.5623 55.7716C54.5365 55.9454 53.4834 56.1326 52.4029 56.3464ZM104.758 41.2672C110.708 41.8688 116.151 42.6843 121.267 43.7136C122.812 36.2676 123.14 29.7974 122.238 24.0358C121.718 21.2953 120.87 18.234 118.764 16.8972C118.121 16.6432 117.41 16.5229 116.589 16.5229C114.674 16.5229 112.554 17.2047 110.927 17.8063C105.511 19.9585 100.081 23.4743 94.4597 28.4874C97.9336 32.3106 101.326 36.5216 104.758 41.2672ZM50.6796 17.2181C48.8606 18.5281 48.122 21.2953 47.6296 23.8353C46.5218 30.5327 47.4518 37.4707 48.7648 43.6735C53.5791 42.7511 59.3235 41.802 65.2046 41.3073C68.7332 36.5617 72.1662 32.3374 75.6538 28.5007C70.7985 24.3031 64.6848 19.8115 57.6275 17.4721C56.5334 17.1512 54.7417 16.67 53.1551 16.67C52.1567 16.67 51.3498 16.8437 50.6796 17.2181ZM87.1972 40.3315C86.5133 39.516 85.7884 38.6872 85.0636 37.8717C84.325 38.7006 83.6138 39.516 82.93 40.3181C83.5317 40.3181 84.1472 40.3181 84.7763 40.3181C85.5559 40.3181 86.3765 40.3181 87.1972 40.3315Z" fill="#54C1DE"/>
<path d="M116.712 6.68404C119.133 6.68404 121.527 7.13856 123.715 8.28821C128.557 10.9618 130.964 16.3358 131.99 21.4424C133.74 30.6664 132.564 40.1845 130.335 49.2213C139.266 51.8147 148.156 55.3171 155.377 61.1991C159.357 64.5277 162.941 69.0061 163.146 74.3265C163.228 79.754 159.727 84.4462 155.733 87.9085C148.621 94.0044 139.703 97.6539 130.759 100.341C132.879 109.859 134.287 119.885 131.839 129.47C130.608 134.162 128.119 139.015 123.537 141.341C121.39 142.424 119.065 142.865 116.712 142.865C113.786 142.865 110.804 142.196 108.082 141.247C99.3974 138.119 91.9297 132.464 85.3237 126.248C78.4579 132.545 70.7441 138.279 61.7446 141.314C59.0639 142.183 56.1644 142.798 53.3059 142.798C50.9124 142.798 48.5463 142.37 46.358 141.287C41.5984 138.894 39.0955 133.788 38.0013 128.882C35.9771 119.551 37.3722 109.886 39.6152 100.702C31.0534 98.2421 22.6284 94.7396 15.6395 89.232C11.5364 85.8498 7.59738 81.5052 6.95457 76.0911C6.27072 70.8909 9.2523 66.025 12.9724 62.5626C20.3307 55.6781 30.0687 51.9216 39.6836 49.1277C37.5363 40.1444 36.1002 30.7466 37.8235 21.5627C38.7673 16.6566 40.9419 11.55 45.4143 8.7561C47.7667 7.35245 50.42 6.80436 53.1144 6.80436C55.7814 6.80436 58.5032 7.35245 60.9924 8.14116C70.1833 11.1757 78.0886 17.0577 85.0775 23.5011C91.7793 17.2849 99.2332 11.55 107.959 8.32832C110.695 7.37918 113.731 6.68404 116.712 6.68404ZM103.596 44.5157C103.61 44.5157 103.624 44.5157 103.637 44.5157C110.435 45.1841 117.205 46.1734 123.852 47.6973C125.78 39.8235 126.861 31.5888 125.602 23.5412C124.919 19.9586 123.756 15.8947 120.323 13.9295C119.12 13.4082 117.848 13.1943 116.576 13.1943C114.237 13.1943 111.857 13.9028 109.71 14.6915C102.092 17.7127 95.4857 22.7391 89.6593 28.327C94.1591 33.0192 98.2485 38.0723 102.037 43.326C102.447 43.834 102.83 44.5157 103.596 44.5157ZM46.1528 47.5904C52.6631 46.2669 59.228 45.1307 65.875 44.5959C66.5999 44.5959 67.3111 44.3419 67.6667 43.6869C71.6331 38.3129 75.8593 33.1127 80.4821 28.2601C74.1223 22.4718 67.0513 17.0443 58.722 14.3038C56.9713 13.7825 55.0429 13.328 53.1554 13.328C51.6373 13.328 50.1465 13.6221 48.8198 14.4242C45.9203 16.416 44.9082 19.9987 44.2791 23.2204C42.9251 31.3482 44.2654 39.6364 46.1528 47.5904ZM75.7225 43.8206C78.7314 43.7003 81.754 43.6602 84.763 43.6602C87.9497 43.6602 91.1364 43.7136 94.3232 43.8072C91.41 40.0241 88.3874 36.2943 85.0092 32.8855C81.754 36.4013 78.622 40.024 75.7225 43.8206ZM71.7972 99.1244C71.8519 99.1244 71.9203 99.1243 71.9887 99.111C76.5157 99.2981 81.0565 99.4452 85.5836 99.4452C90.2064 99.4452 94.8292 99.2848 99.4247 98.8704C104.622 91.1436 109.327 83.096 113.553 74.8212C109.423 66.3993 104.581 58.3116 99.2332 50.5848C94.4463 50.2506 89.632 50.0635 84.8314 50.0635C80.1265 50.0635 75.4079 50.2373 70.7167 50.6116C65.3416 58.3116 60.5684 66.4126 56.4653 74.8345C60.2675 82.334 64.4253 89.6597 69.1575 96.6379C69.8961 97.5736 70.3885 99.1244 71.7972 99.1244ZM62.2643 51.4805C57.45 51.9751 52.6904 52.8173 47.9719 53.8466C49.3943 58.325 51.0492 62.7498 52.9366 67.0543C56.0276 61.8541 58.8861 56.5203 62.2643 51.4805ZM117.136 67.0543C119.024 62.7899 120.556 58.4052 122.142 54.0338C117.437 52.7505 112.568 52.0553 107.713 51.5072C111.132 56.5203 113.909 61.921 117.136 67.0543ZM41.5027 94.4321C43.6226 87.7347 46.2212 81.1844 49.2301 74.8212C46.3033 68.5248 43.6773 62.068 41.6121 55.4508C33.3648 57.6833 25.1586 60.9184 18.5527 66.3592C15.9267 68.6719 13.1639 71.7465 13.5606 75.4495C14.2581 79.1925 17.226 81.9865 20.0708 84.3526C26.3485 89.2052 33.8709 92.2665 41.5027 94.4321ZM128.817 94.138C136.968 91.5847 145.174 88.363 151.657 82.7484C154.187 80.4358 156.868 77.4012 156.403 73.7651C155.801 70.4498 153.189 67.9232 150.659 65.8378C144.176 60.8248 136.353 57.7501 128.475 55.5177C126.409 62.1081 123.715 68.4713 120.857 74.7543C123.975 81.0106 126.587 87.5208 128.817 94.138ZM107.754 98.1886C112.664 97.6004 117.547 96.7849 122.388 95.7556C120.87 91.1703 119.243 86.5717 117.054 82.2538C114.182 87.6813 110.941 92.9215 107.754 98.1886ZM62.4421 98.2822C58.9818 93.1755 56.0276 87.7748 52.9503 82.4543C51.0902 86.9059 49.2438 91.3976 47.9445 96.0363C52.7315 97.0256 57.5731 97.7875 62.4421 98.2822ZM116.712 136.301C118.586 136.301 120.405 135.873 121.828 134.59C124.166 132.317 125.178 129.082 125.794 125.981C127.244 118 126.095 109.805 124.262 101.985C117.246 103.429 110.161 104.552 103.008 105.153C98.905 110.808 94.6378 116.383 89.8098 121.476C96.3884 127.478 103.692 133.253 112.473 135.766C113.799 136.06 115.276 136.301 116.712 136.301ZM53.4153 136.234C56.2875 136.234 59.146 135.365 61.7993 134.323C68.9387 131.395 75.148 126.663 80.7009 121.476C75.8045 116.409 71.3869 110.928 67.2564 105.247C60.1444 104.645 53.0734 103.736 46.0981 102.239C44.0876 110.501 42.7473 119.203 44.5253 127.638C45.3185 131.007 46.9598 134.964 50.7209 135.967C51.6099 136.141 52.5126 136.234 53.4153 136.234ZM94.542 105.675C91.3826 105.822 88.2369 105.889 85.0775 105.889C81.9592 105.889 78.8408 105.822 75.7225 105.728C78.7861 109.538 81.8087 113.401 85.3374 116.824C88.5515 113.241 91.6562 109.538 94.542 105.675ZM116.712 0C113.225 0 109.477 0.695142 105.593 2.08542L105.552 2.09879L105.511 2.11216C97.3048 5.13334 90.3432 10.0662 85.0092 14.5311C77.5278 8.32832 70.4705 4.25105 63.1396 1.83143C59.6247 0.70851 56.2601 0.14705 53.0871 0.14705C48.8745 0.14705 45.086 1.13629 41.8309 3.07466L41.7762 3.11476L41.7215 3.15487C36.278 6.53699 32.5989 12.4858 31.0808 20.3596C29.4669 28.9018 30.3149 37.3905 31.6962 44.636C23.873 47.3097 15.1881 51.2399 8.21285 57.7635C2.236 63.338 -0.704552 70.3295 0.143422 76.9333C0.895656 83.1361 4.50638 88.8443 11.1944 94.3787L11.2491 94.4321L11.3175 94.4856C16.8704 98.857 23.5448 102.4 31.6142 105.234C30.1918 112.666 29.3712 121.409 31.2996 130.299C33.0776 138.293 37.3175 144.295 43.2259 147.263C46.2486 148.76 49.6268 149.522 53.2922 149.522C56.5884 149.522 60.1444 148.907 63.8919 147.691L63.9329 147.677L63.9739 147.664C71.0997 145.258 77.9792 141.274 85.269 135.272C92.2169 141.113 98.8092 145.057 105.73 147.544L105.771 147.557L105.812 147.57C109.641 148.907 113.307 149.576 116.726 149.576C120.364 149.576 123.729 148.814 126.697 147.303C132.386 144.429 136.462 138.841 138.473 131.168C140.798 122.051 140.114 113 138.65 104.859C145.42 102.453 153.449 98.8169 160.26 92.975C166.743 87.3604 170.094 80.9036 169.998 74.2731V74.1929V74.1127C169.752 67.7094 166.237 61.4932 159.836 56.1593L159.809 56.1326L159.781 56.1059C152.97 50.5447 145.024 47.0557 138.322 44.743C140.004 35.666 140.127 27.6051 138.732 20.2526L138.719 20.2125L138.705 20.1724C137.036 11.8842 133.015 5.77501 127.08 2.48646L127.011 2.44636L126.943 2.40626C123.907 0.802087 120.46 0 116.712 0ZM112.213 20.9077C113.471 20.4532 115.235 19.8783 116.589 19.8783C116.808 19.8783 116.986 19.8917 117.164 19.9184C117.67 20.4398 118.299 21.6964 118.873 24.6507C119.557 29.1424 119.448 34.1421 118.518 39.7834C114.757 39.115 110.831 38.5536 106.646 38.099C104.184 34.757 101.736 31.6824 99.2606 28.8082C103.665 25.2256 107.932 22.6188 112.213 20.9077ZM52.54 20.0655C52.6768 20.0388 52.8819 20.012 53.1554 20.012C54.2496 20.012 55.6447 20.373 56.6294 20.6671C61.9224 22.4316 66.723 25.5999 70.8124 28.8483C68.3369 31.7091 65.8614 34.7838 63.3585 38.1124C59.2007 38.5135 55.166 39.1284 51.5005 39.7701C50.6252 34.7971 50.1875 29.49 51.0218 24.37C51.5416 21.6697 52.1023 20.5334 52.54 20.0655ZM74.5463 57.055C77.9108 56.8545 81.3574 56.7609 84.845 56.7609C88.2916 56.7609 91.834 56.8545 95.431 57.055C99.3563 62.9236 102.871 68.859 105.921 74.7811C102.68 80.917 99.1922 86.8391 95.5268 92.4804C92.4494 92.6809 89.1806 92.7745 85.5973 92.7745C81.8087 92.7745 78.0065 92.6676 74.5873 92.5339C70.9902 87.2 67.5573 81.3715 64.1107 74.7944C67.2154 68.7253 70.703 62.7765 74.5463 57.055ZM23.0524 71.3989C26.7862 68.351 31.3954 65.8779 37.2491 63.8059C38.5484 67.3618 40.0392 70.9979 41.7352 74.7944C40.0666 78.4974 38.5347 82.2405 37.167 85.9701C32.0655 84.0719 27.853 81.826 24.3927 79.1658C22.6558 77.722 20.8777 76.0644 20.3717 74.6073C20.4811 74.2731 20.9188 73.2838 23.0524 71.3989ZM128.365 74.6474C129.788 71.439 131.333 67.7896 132.783 63.9262C138.322 65.9314 142.712 68.2307 146.323 71.0246C147.13 71.693 149.141 73.3774 149.592 74.6875C149.524 74.9548 149.141 75.8772 147.034 77.8156C142.986 81.3047 137.98 83.751 133.015 85.6359C131.552 81.7859 130.02 78.1498 128.365 74.6474ZM106.769 111.503C110.681 111.089 114.688 110.541 118.873 109.805C119.803 115.607 119.858 120.366 119.079 124.751C118.764 126.288 118.258 128.387 117.26 129.577C117.15 129.59 116.986 129.617 116.726 129.617C116.083 129.617 115.249 129.51 114.196 129.283C108.793 127.692 103.829 124.443 99.4247 120.861C102.105 117.693 104.554 114.498 106.769 111.503ZM51.2133 126.208C50.0918 120.834 50.5295 115.153 51.4185 110.046C55.2343 110.674 59.2554 111.196 63.5363 111.61C66.0665 114.979 68.5557 118.067 71.045 120.928C66.9692 124.19 63.1123 126.529 59.2007 128.146C56.7798 129.109 54.9335 129.55 53.429 129.55C53.1281 129.55 52.8545 129.537 52.581 129.497C52.3622 129.256 51.733 128.427 51.2133 126.208Z" fill="white"/>
<path d="M85.0382 91.6917C80.1965 91.6917 75.6011 89.7667 72.4007 86.4113C68.0103 82.0667 66.4101 75.142 68.4617 69.22C70.226 63.8594 75.013 59.488 80.6479 58.0977C82.0429 57.71 83.479 57.5095 84.9425 57.5095C93.7231 57.5095 101.628 64.501 102.271 72.8026C103.338 80.8903 97.621 89.0716 89.4969 91.0902C88.1292 91.4912 86.5974 91.6917 85.0382 91.6917Z" fill="#54C1DE"/>
<path d="M84.956 60.8647C91.8082 60.8647 98.4005 66.2788 98.8792 73.1633C99.7819 79.6602 95.159 86.2641 88.6762 87.8682C87.4863 88.1891 86.269 88.3495 85.0381 88.3495C81.2632 88.3495 77.4884 86.8523 74.9034 84.1385C71.3064 80.5826 70.0618 75.0215 71.703 70.3026C73.1391 65.9446 76.9823 62.4288 81.5368 61.3326C82.6719 61.0118 83.8208 60.8647 84.956 60.8647ZM84.956 54.1807C83.1917 54.1807 81.4547 54.4079 79.7724 54.8758C72.9613 56.5602 67.3947 61.6534 65.2064 68.1904C62.7309 75.3423 64.6046 83.3899 69.966 88.7505C73.7956 92.7342 79.2937 95.0202 85.0381 95.0202C86.8845 95.0202 88.7035 94.7795 90.4405 94.3117C100.274 91.8252 106.935 82.2804 105.69 72.4682C104.856 62.3753 95.6104 54.1807 84.956 54.1807Z" fill="white"/>
</svg>
